<svg xmlns="http://www.w3.org/2000/svg" viewBox="0 0 493.71 111.36"><defs><style>.cls-1{fill:#f89622}.cls-2{fill:#0851a0}.cls-3{fill:#fff}.cls-4{fill:#0b51a0}.cls-5{fill:#0951a0}.cls-6{fill:#6d6e71}</style></defs><title>Asset 1</title><g id="Layer_2" data-name="Layer 2"><g id="Layer_1-2" data-name="Layer 1"><path class="cls-1" d="M105.06 1.5c.15.14.27.35.44.4 4.73 1.5 7.19 4.35 7.22 9.12.1 13.82 0 27.63 0 41.45a4.2 4.2 0 0 1-.26.86c-1.83-1.24-3.53-2.42-5.25-3.56-1.45-1-2.9-1.94-4.41-2.8-6.7-3.81-13.59-3.93-20.13 0-7.15 4.31-13.62 3.3-20.15-1.13a2088.1 2088.1 0 0 0-24.28-16.18A2.3 2.3 0 0 1 37 26.87a12.43 12.43 0 0 0-7.4-13.8 12.7 12.7 0 0 0-15.19 19.42 12.51 12.51 0 0 0 15.31 3.66 3.76 3.76 0 0 1 4.44.36C43.55 42.85 53.09 49 62.42 55.4c6.9 4.75 13.88 5.47 21.33 1.56a42.53 42.53 0 0 1 7.59-3.27c4.15-1.23 7.94-.21 11.42 2.08 3 2 6 4.15 9 6.21a2 2 0 0 1 1.06 1.74v25.16l-8.12-5.54-3.48-2.34c-3.42-2.36-7-2.79-10.63-.62-2.84 1.69-5.59 1.32-8.21-.38-3.58-2.35-7.11-4.79-10.71-7.11a2.19 2.19 0 0 1-1.11-2.29 5.39 5.39 0 0 0-3.8-5.67 5.69 5.69 0 0 0-6.4 2 5.6 5.6 0 0 0 0 6.68A5.52 5.52 0 0 0 67 75.45a2.49 2.49 0 0 1 2.74.4c4 2.68 8 5.27 12 8 3.18 2.2 6.43 2.67 9.81.7 3.76-2.19 7.06-1.78 10.43.94 3 2.46 6.38 4.55 9.6 6.79.68.47 1.25.91 1.22 1.88-.1 3 .06 6.09-.23 9.1-.39 4.09-3.27 6.94-7.37 7.75H80c-4.91-2.11-7.72-5.31-6.74-11.12.52-3.08-1.19-5.55-3.85-7.27-3.84-2.49-7.64-5-11.51-7.49-1.57-1-3.1-1.84-2.72-4.11a2.92 2.92 0 0 0-.54-1.61 5.71 5.71 0 0 0-7.55-2.29 5.6 5.6 0 0 0-2.58 7.4 5.71 5.71 0 0 0 7.36 2.84c.83-.34 1.47-1 2.55-.29 3.78 2.57 7.7 5 11.47 7.55 2.29 1.57 3.64 3.8 3.17 6.69a9.17 9.17 0 0 0 3.63 9.18c-.71.77-1.65.42-2.47.42H9.97c-.82 0-1.76-.4-2.46.41h-.43c-.13-.54-.65-.52-1-.67a9.18 9.18 0 0 1-6.06-8c0-.36.08-.72.08-1.08V11.19c0-.36 0-.72-.08-1.08.65-4.63 3.31-7.47 7.81-8.3.43 0 .87.12 1.3.12h93.69c.62 0 1.33.26 1.8-.42z"/><path class="cls-2" d="M400.76 90c-13.87 0-22.18-8.24-22.23-22V21.99a29.68 29.68 0 0 1 .69-6.62C381 7.61 386.1 2.86 394.48 1.25a2 2 0 0 1 .38 0h.37l.15-.44h87.54l.22.34c.12.19.24.22.82.22a3.73 3.73 0 0 1 .9.08c4.72 1.17 6.85 3.43 7.57 8.06.2 1.25.29 2.52.38 3.75 0 .55.08 1.11.13 1.66l-.11 21.21h-5.17c-4.06 0-8.26 0-12.39.08a2.42 2.42 0 0 1-1.82-.56 2.4 2.4 0 0 1-.52-1.79v-9.34c0-.73-.07-1-.16-1.08s-.36-.21-1.12-.21h-69.33c-.73 0-1 .11-1.08.2s-.19.92-.19 1.16c.07 16 .06 29.24 0 41.68a2 2 0 0 0 .23 1.24c.16.16.58.23 1.28.23h71.33c.75 0 1-.12 1-.18s.17-.29.14-1c-.06-1.47 0-3 0-4.39V58.1a2.55 2.55 0 0 1 .54-1.89 2.52 2.52 0 0 1 1.88-.6h15.25l.3 17.12a30.55 30.55 0 0 1-1 7.5c-1.6 5.88-5.86 9.34-12 9.74-1 .07-2.06.07-3.11.07h-76.13z"/><path class="cls-3" d="M482.53 1.5c.53.82 1.45.44 2.17.62 4.35 1.08 6.32 3.07 7 7.44.28 1.77.34 3.58.51 5.37l-.11 20.4c-5.61 0-11.22 0-16.83.09h-.09c-1.18 0-1.53-.37-1.5-1.58.08-3.11-.07-6.23.06-9.33.07-1.61-.38-2.07-2-2.07h-69.3c-1.69 0-2 .56-2 2.12q.09 20.84 0 41.67c0 1.83.54 2.23 2.26 2.23h.05q12.07-.06 24.15 0h47.13-.03c1.5 0 1.93-.46 1.87-1.95-.11-2.82 0-5.64-.06-8.46 0-1.34.41-1.72 1.66-1.72H492l.21 16.38a29.93 29.93 0 0 1-1 7.29c-1.51 5.56-5.53 8.81-11.32 9.19-1 .07-2 .07-3.06.07h-76.07c-13.53 0-21.44-7.79-21.48-21.29v-46a29.11 29.11 0 0 1 .67-6.46c1.76-7.83 6.94-12.04 14.67-13.51h.56a.67.67 0 0 0 .74-.47h86.6m.82-1.5h-88.48l-.16.47h-.36c-8.7 1.68-14 6.62-15.86 14.69a30.41 30.41 0 0 0-.71 6.79V68c0 14.26 8.63 22.78 23 22.78h76.09c1.06 0 2.1 0 3.16-.07a13.38 13.38 0 0 0 12.67-10.29 31.24 31.24 0 0 0 1-7.66l-.21-16.43v-1.48h-16a2.82 2.82 0 0 0-3.16 3.27v8.8L474 67h-71.32a4.48 4.48 0 0 1-.76 0 3.57 3.57 0 0 1 0-.67c.07-12.41.08-25.66 0-41.69a4.66 4.66 0 0 1 0-.58 3.5 3.5 0 0 1 .48 0h69.32a4.16 4.16 0 0 1 .54 0 3.88 3.88 0 0 1 0 .48c-.07 1.74-.06 3.48 0 5.18v4.18a3.12 3.12 0 0 0 .73 2.33 3.05 3.05 0 0 0 2.27.78h.11c4.11-.06 8.3-.07 12.35-.08h5.95v-1.59l.11-20.4v-.14c-.05-.55-.09-1.1-.13-1.66-.09-1.24-.19-2.53-.39-3.81-.77-4.92-3.13-7.43-8.13-8.67A4.39 4.39 0 0 0 484 .57h-.27l-.39-.57z"/><path class="cls-4" d="M274.81 89.93c-11 0-18.74-7.1-19.61-18.09-.38-4.72-.33-9.52-.28-14.15v-6.51c-.1-11.6-.17-21.28 0-31.28.13-6.75 3.83-14.87 11.8-17.8a12 12 0 0 1 4.28-.86h84a39.13 39.13 0 0 1 7.32.56c4.61.86 7.76 3.65 9.37 8.31a36.56 36.56 0 0 1 1.62 11.13c.05 2.22 0 4.48 0 6.66v5.72a2.6 2.6 0 0 1-.54 1.95 2.42 2.42 0 0 1-1.76.57h-.12c-2.38 0-4.83-.07-7.26-.07s-4.91 0-7.36.07h-.12a2.41 2.41 0 0 1-1.79-.58 2.54 2.54 0 0 1-.53-1.91v-9.5c0-.63-.07-.81-.12-.86s-.19-.14-.79-.14h-77.86c-.61 0-.75.12-.77.14s-.12.26-.11.9v.21c.06 2.86.13 5.82 0 8.74a1.87 1.87 0 0 0 .18 1.22c.16.17.6.26 1.32.26q17.27-.06 34.47 0h25.7c4 0 4.33.31 4.33 4.2v4.45c0 3.73 0 7.59.06 11.38a3 3 0 0 1-.61 2.21 3.06 3.06 0 0 1-2.27.66h-25.21c-11.82 0-24 0-36.06-.07-1 0-1.49.11-1.71.35s-.27.73-.2 1.6a50.48 50.48 0 0 1 0 7 1.8 1.8 0 0 0 .15 1.16c.1.11.38.23 1.17.23 6 0 11.93-.05 17.86-.05h58.52c.69 0 1.08-.06 1.19-.19s.18-.27.13-1c-.1-1.69-.08-3.4-.06-5.05v-3.44a2.48 2.48 0 0 1 .53-1.89 2.31 2.31 0 0 1 1.7-.57h16.62a1.89 1.89 0 0 1 1.41.47 1.76 1.76 0 0 1 .43 1.34c-.06 1.91 0 3.86 0 5.75a53.83 53.83 0 0 1-.86 13c-2.1 9.15-7.93 13.79-17.34 13.79h-80.82z"/><path class="cls-3" d="M271 2h84.04a38.79 38.79 0 0 1 7.11.54c4.51.84 7.33 3.57 8.79 7.82a35.72 35.72 0 0 1 1.57 10.91c.1 4.12 0 8.25 0 12.37 0 1.23-.22 1.76-1.56 1.76h.05q-3.64-.07-7.28-.07t-7.37.07h-.11c-1.29 0-1.61-.44-1.58-1.71.09-3.18 0-6.37 0-9.55 0-1.25-.24-1.77-1.67-1.77h-77.85c-1.46 0-1.65.59-1.62 1.8.07 3 .14 5.94 0 8.9-.1 1.81.47 2.27 2.26 2.27q17.3-.06 34.6 0H336c3.55 0 3.55 0 3.55 3.45 0 5.28-.08 10.57 0 15.85 0 1.74-.5 2.1-2.14 2.1-20.41-.06-40.82 0-61.23-.1h-.06c-2.26 0-2.77.68-2.6 2.76a49.75 49.75 0 0 1 0 6.94c-.1 1.65.35 2.18 2.07 2.18h.06q8.86-.06 17.72-.05H352c1.53 0 2.12-.3 2-2-.16-2.81 0-5.64-.06-8.46 0-1.13.2-1.69 1.49-1.69h16.61c.6 0 1.12.08 1.09 1-.21 6.2.57 12.45-.84 18.6q-3 13.19-16.61 13.21h-80.87c-10.57 0-18-6.87-18.87-17.4-.55-6.86-.19-13.74-.25-20.61-.09-10.42-.18-20.84 0-31.26.16-6.36 3.72-14.26 11.31-17.06a11.37 11.37 0 0 1 4-.8m0-1.5a12.69 12.69 0 0 0-4.52.9c-8.3 3.05-12.15 11.49-12.29 18.49-.2 10-.14 19.71 0 31.3v6.5c0 4.65-.1 9.46.28 14.22.9 11.23 9.08 18.77 20.36 18.78h80.91c9.8 0 15.88-4.84 18.07-14.37a54.39 54.39 0 0 0 .88-13.17c0-1.88-.06-3.82 0-5.71a2.48 2.48 0 0 0-.64-1.88 2.59 2.59 0 0 0-2-.7h-16.61a3.08 3.08 0 0 0-2.24.79 3.18 3.18 0 0 0-.75 2.43v3.42c0 1.66 0 3.39.06 5.1a3.54 3.54 0 0 1 0 .38 5.21 5.21 0 0 1-.54 0h-58.66c-7.17 0-12.64 0-17.73.05h-.05a3.57 3.57 0 0 1-.57 0 3.67 3.67 0 0 1 0-.56 51.13 51.13 0 0 0 0-7.15 3.34 3.34 0 0 1 0-1 3.36 3.36 0 0 1 1.09-.11h.05c12 .06 24.25.07 36.07.07h25.16a3.73 3.73 0 0 0 2.85-.89 3.66 3.66 0 0 0 .82-2.75c-.09-3.77-.08-7.62-.06-11.34v-4.47c0-4.3-.66-4.95-5-4.95h-60.15a4.12 4.12 0 0 1-.78-.05 3.32 3.32 0 0 1 0-.64c.16-3 .09-5.94 0-8.83v-.44h78.15v9.77a3.24 3.24 0 0 0 .74 2.45 3.14 3.14 0 0 0 2.33.8h.13c2.46 0 4.93-.07 7.35-.07s4.87 0 7.25.07h.13a3.1 3.1 0 0 0 2.3-.79 3.28 3.28 0 0 0 .76-2.49V21.28a37.26 37.26 0 0 0-1.66-11.36c-1.7-4.93-5-7.9-9.94-8.81a39.6 39.6 0 0 0-7.46-.61h-84.04z"/><path class="cls-5" d="M147.06 89.54a7.55 7.55 0 0 1-1.38-.17c-8-1.55-13.91-8.44-14.66-17.16-.27-3.14-.29-6.29-.27-9V47.69c0-9.5-.1-19.32.25-29a24 24 0 0 1 .62-4.43C133.41 6.33 138.43 2 147 1.23c.41 0 .82-.06 1.23-.08h84.17c10.74.74 16.22 6.25 16.86 16.83.21 3.49.2 7 .2 10.47v5.62a2.2 2.2 0 0 1-.49 1.64 2.11 2.11 0 0 1-1.55.51h-15.56a1.92 1.92 0 0 1-2.24-2.25V24.2c0-.63-.08-.81-.13-.86s-.3-.17-1-.17H150.2c-.69 0-.87.12-.92.17s-.15.26-.13.91c.08 2.52.14 5.83 0 9.17 0 .73.08 1 .15 1s.52.2 1.16.2h26.09c12 0 24.46 0 36.69-.07a3.7 3.7 0 0 1 2.77.78 3.61 3.61 0 0 1 .69 2.71c-.15 4.87-.15 10 0 16.24a3.29 3.29 0 0 1-.7 2.42 3.29 3.29 0 0 1-2.42.72q-16-.06-31.94-.05h-30.63c-.94 0-1.42.09-1.62.29a2.34 2.34 0 0 0-.28 1.5v13.35c0 4.66-.05 9.48 0 14.21a3.09 3.09 0 0 1-.61 2.28 1.92 1.92 0 0 1-1.44.54z"/><path class="cls-3" d="M232.37 1.86c10.18.71 15.45 5.86 16.07 16.12.32 5.34.13 10.7.22 16.06 0 1-.24 1.39-1.29 1.39H231.8c-1.11 0-1.46-.38-1.43-1.49.06-3.25-.05-6.51.05-9.77 0-1.47-.46-1.8-1.85-1.8L190 22.4h-39.8c-1.47 0-1.84.47-1.79 1.85.09 3 .13 6.08 0 9.11-.08 1.67.48 2 2.06 2 20.92-.05 41.83 0 62.75-.09h.06c2.19 0 2.72.58 2.65 2.72-.17 5.42-.14 10.85 0 16.28 0 1.84-.37 2.41-2.33 2.41-20.84-.08-41.69 0-62.53-.1H151c-2 0-2.63.41-2.6 2.55.1 9.19-.11 18.38 0 27.56 0 1.67-.47 2.11-1.34 2.11a6.92 6.92 0 0 1-1.24-.16c-7.65-1.47-13.33-8-14.05-16.48-.25-2.95-.29-5.93-.27-8.89.1-14.83-.3-29.66.23-44.49a23.13 23.13 0 0 1 .6-4.29C134.08 6.78 138.82 2.77 147 2c.58-.06 1.16-.08 1.74-.11 1.16 0 2.32.06 3.48.06h78.6c.51 0 1-.06 1.52-.08m0-1.5h-84.25c-.42 0-.83 0-1.25.09-8.88.85-14.12 5.32-16 13.65a24.68 24.68 0 0 0-.63 4.57c-.34 9.68-.3 19.51-.25 29 0 5.09.05 10.35 0 15.52 0 2.68 0 5.85.27 9 .78 9.05 6.91 16.22 15.26 17.83a8.21 8.21 0 0 0 1.52.19 2.66 2.66 0 0 0 2-.76 4 4 0 0 0 .87-2.87c-.06-4.73 0-9.55 0-14.21 0-4.37.05-8.9 0-13.35a3.4 3.4 0 0 1 .08-1 4 4 0 0 1 1-.08h30.8c10.41 0 21.18 0 31.77.05a4 4 0 0 0 3-.94 3.93 3.93 0 0 0 .86-3c-.14-6.19-.14-11.34 0-16.2a4.31 4.31 0 0 0-.91-3.26 4.33 4.33 0 0 0-3.24-1h-.07c-12.21.06-24.62.06-36.62.07h-26.12a4.93 4.93 0 0 1-.59 0 3.5 3.5 0 0 1 0-.42c.16-3.36.09-6.7 0-9.23v-.3h78.94v.24c-.06 1.85-.05 3.72 0 5.53v4.26a3 3 0 0 0 .73 2.24 3 3 0 0 0 2.2.77h15.61a2.54 2.54 0 0 0 2.83-2.76v-5.62c0-3.44 0-7-.2-10.51C249.28 7 243.4 1.12 232.48.36z"/><path class="cls-6" d="M142.08 108.61v-9.46h6.43v1.12h-5.17v2.93h4.47v1.12h-4.47v4.3zm18.06-9.46h1.26v5.46a6.42 6.42 0 0 1-.33 2.26 2.77 2.77 0 0 1-1.17 1.36 4.18 4.18 0 0 1-2.23.53 4.6 4.6 0 0 1-2.19-.46 2.62 2.62 0 0 1-1.21-1.33 6.27 6.27 0 0 1-.36-2.37v-5.45h1.26v5.46a5.29 5.29 0 0 0 .23 1.82 1.74 1.74 0 0 0 .79.9 2.78 2.78 0 0 0 1.37.32 2.64 2.64 0 0 0 2-.63 3.59 3.59 0 0 0 .59-2.41zm9.52 9.46v-8.34h-3.14v-1.12h7.55v1.12h-3.15v8.34zm15.69-9.46h1.26v5.46a6.42 6.42 0 0 1-.33 2.26 2.77 2.77 0 0 1-1.17 1.36 4.18 4.18 0 0 1-2.23.53 4.6 4.6 0 0 1-2.19-.46 2.62 2.62 0 0 1-1.21-1.33 6.27 6.27 0 0 1-.36-2.37v-5.45h1.26v5.46a5.29 5.29 0 0 0 .23 1.82 1.74 1.74 0 0 0 .79.9 2.78 2.78 0 0 0 1.37.32 2.64 2.64 0 0 0 2-.63 3.59 3.59 0 0 0 .59-2.41zm7.12 9.46v-9.46h4.22a5.66 5.66 0 0 1 1.94.25 2.11 2.11 0 0 1 1.06.9 2.67 2.67 0 0 1 .4 1.43 2.37 2.37 0 0 1-.66 1.7 3.33 3.33 0 0 1-2 .88 3.3 3.3 0 0 1 .76.47 6.53 6.53 0 0 1 1 1.26l1.66 2.57h-1.59l-1.26-2q-.55-.85-.91-1.3a2.85 2.85 0 0 0-.64-.63 1.9 1.9 0 0 0-.58-.25 3.81 3.81 0 0 0-.7 0h-1.46v4.2zm1.26-5.28h2.71a4.07 4.07 0 0 0 1.35-.18 1.43 1.43 0 0 0 .74-.57 1.53 1.53 0 0 0 .25-.85 1.41 1.41 0 0 0-.49-1.1 2.31 2.31 0 0 0-1.55-.43h-3zm12.1 5.28v-9.46h6.89v1.12h-5.63v2.9h5.27v1.11h-5.27v3.22h5.85v1.12zm20.05 0v-9.46h6.89v1.12h-5.63v2.9h5.27v1.11h-5.27v3.22H233v1.12zm12.54 0v-9.46h1.26v8.34h4.69v1.12zm11.22 0v-9.46h6.89v1.12h-5.63v2.9h5.27v1.11h-5.27v3.22h5.85v1.12zm19.36-3.32l1.26.32a4.21 4.21 0 0 1-1.43 2.35 4 4 0 0 1-2.52.81 4.55 4.55 0 0 1-2.5-.62 3.89 3.89 0 0 1-1.47-1.8 6.4 6.4 0 0 1-.5-2.53 5.54 5.54 0 0 1 .57-2.58 3.88 3.88 0 0 1 1.59-1.68 4.75 4.75 0 0 1 2.31-.57 3.93 3.93 0 0 1 2.4.72 3.75 3.75 0 0 1 1.36 2l-1.24.29a2.92 2.92 0 0 0-1-1.5 2.58 2.58 0 0 0-1.59-.47 3.09 3.09 0 0 0-1.83.52 2.75 2.75 0 0 0-1 1.4 5.62 5.62 0 0 0-.3 1.82 5.73 5.73 0 0 0 .35 2.11 2.63 2.63 0 0 0 1.1 1.34 3.1 3.1 0 0 0 1.62.45 2.72 2.72 0 0 0 1.79-.61 3.1 3.1 0 0 0 1.03-1.77zm9 3.32v-8.34h-3.14v-1.12h7.55v1.12h-3.15v8.34zm9.46 0v-9.46h4.22a5.66 5.66 0 0 1 1.94.25 2.11 2.11 0 0 1 1.06.9 2.67 2.67 0 0 1 .4 1.43 2.37 2.37 0 0 1-.66 1.7 3.33 3.33 0 0 1-2 .88 3.3 3.3 0 0 1 .76.47 6.53 6.53 0 0 1 1 1.26l1.66 2.57h-1.59l-1.26-2q-.55-.85-.91-1.3a2.85 2.85 0 0 0-.64-.63 1.9 1.9 0 0 0-.58-.25 3.81 3.81 0 0 0-.7 0h-1.46v4.2zm1.26-5.28h2.71a4.07 4.07 0 0 0 1.35-.18 1.43 1.43 0 0 0 .74-.57 1.53 1.53 0 0 0 .25-.85 1.41 1.41 0 0 0-.49-1.1 2.31 2.31 0 0 0-1.55-.43h-3zm11.69.67a5.11 5.11 0 0 1 1.27-3.69A4.34 4.34 0 0 1 305 99a4.59 4.59 0 0 1 2.38.63 4.1 4.1 0 0 1 1.61 1.75 5.62 5.62 0 0 1 .56 2.54 5.53 5.53 0 0 1-.58 2.57 4 4 0 0 1-1.66 1.72 4.76 4.76 0 0 1-2.31.58 4.53 4.53 0 0 1-2.4-.64 4.16 4.16 0 0 1-1.6-1.76 5.3 5.3 0 0 1-.59-2.39zm1.3 0a3.77 3.77 0 0 0 .93 2.69 3.24 3.24 0 0 0 4.67 0 4 4 0 0 0 .92-2.82 4.82 4.82 0 0 0-.39-2 3 3 0 0 0-1.15-1.34 3.14 3.14 0 0 0-1.7-.47 3.23 3.23 0 0 0-2.3.91 4.06 4.06 0 0 0-.98 3.03zm13.16 4.61v-9.46h1.29l5 7.42v-7.42h1.21v9.46h-1.29l-5-7.43v7.43zm13.58 0v-9.46h1.26v9.46zm14.01-3.32l1.26.32a4.21 4.21 0 0 1-1.42 2.39 4 4 0 0 1-2.52.81 4.55 4.55 0 0 1-2.5-.62 3.89 3.89 0 0 1-1.47-1.8 6.4 6.4 0 0 1-.5-2.53 5.54 5.54 0 0 1 .57-2.58 3.88 3.88 0 0 1 1.62-1.67 4.75 4.75 0 0 1 2.3-.61 3.93 3.93 0 0 1 2.4.72 3.75 3.75 0 0 1 1.36 2l-1.24.29a2.92 2.92 0 0 0-1-1.5 2.58 2.58 0 0 0-1.59-.47 3.09 3.09 0 0 0-1.83.52 2.75 2.75 0 0 0-1 1.4 5.62 5.62 0 0 0-.3 1.82 5.73 5.73 0 0 0 .35 2.11 2.63 2.63 0 0 0 1.1 1.34 3.1 3.1 0 0 0 1.62.45 2.72 2.72 0 0 0 1.79-.61 3.1 3.1 0 0 0 1-1.78zm20.79 0l1.26.32a4.21 4.21 0 0 1-1.43 2.35 4 4 0 0 1-2.52.81 4.55 4.55 0 0 1-2.5-.62 3.89 3.89 0 0 1-1.47-1.8 6.4 6.4 0 0 1-.5-2.53 5.54 5.54 0 0 1 .57-2.58 3.88 3.88 0 0 1 1.62-1.67 4.75 4.75 0 0 1 2.31-.57 3.93 3.93 0 0 1 2.4.72 3.75 3.75 0 0 1 1.36 2l-1.24.29a2.92 2.92 0 0 0-1-1.5 2.58 2.58 0 0 0-1.59-.47 3.09 3.09 0 0 0-1.83.52 2.75 2.75 0 0 0-1 1.4 5.62 5.62 0 0 0-.3 1.82 5.73 5.73 0 0 0 .35 2.11 2.63 2.63 0 0 0 1.1 1.34 3.1 3.1 0 0 0 1.62.45 2.72 2.72 0 0 0 1.79-.61 3.1 3.1 0 0 0 1-1.78zm6.17-1.29a5.11 5.11 0 0 1 1.27-3.69A4.34 4.34 0 0 1 374 99a4.59 4.59 0 0 1 2.38.63 4.1 4.1 0 0 1 1.61 1.75 5.62 5.62 0 0 1 .56 2.54 5.53 5.53 0 0 1-.58 2.57 4 4 0 0 1-1.66 1.72 4.76 4.76 0 0 1-2.31.58 4.53 4.53 0 0 1-2.4-.64 4.16 4.16 0 0 1-1.6-1.76 5.3 5.3 0 0 1-.58-2.39zm1.3 0a3.77 3.77 0 0 0 .93 2.69 3.24 3.24 0 0 0 4.67 0 4 4 0 0 0 .92-2.82 4.82 4.82 0 0 0-.39-2 3 3 0 0 0-1.15-1.34 3.14 3.14 0 0 0-1.7-.47 3.23 3.23 0 0 0-2.3.91 4.06 4.06 0 0 0-.98 3.03zm13.19 4.61v-9.46h4.22a5.66 5.66 0 0 1 1.94.25 2.11 2.11 0 0 1 1.06.9 2.67 2.67 0 0 1 .4 1.43 2.37 2.37 0 0 1-.66 1.7 3.33 3.33 0 0 1-2 .88 3.3 3.3 0 0 1 .76.47 6.53 6.53 0 0 1 1 1.26l1.66 2.57h-1.59l-1.26-2q-.55-.85-.91-1.3a2.85 2.85 0 0 0-.64-.63 1.9 1.9 0 0 0-.58-.25 3.81 3.81 0 0 0-.7 0h-1.46v4.2zm1.26-5.28h2.71a4.07 4.07 0 0 0 1.35-.18 1.43 1.43 0 0 0 .74-.57 1.53 1.53 0 0 0 .25-.85 1.41 1.41 0 0 0-.49-1.1 2.31 2.31 0 0 0-1.55-.43h-3zm12.07 5.28v-9.46h3.59a8.7 8.7 0 0 1 1.45.09 2.88 2.88 0 0 1 1.18.44 2.33 2.33 0 0 1 .76.91 3.06 3.06 0 0 1-.48 3.33 3.73 3.73 0 0 1-2.79.83h-2.45v3.84zm1.26-5h2.5a2.62 2.62 0 0 0 1.73-.45 1.6 1.6 0 0 0 .51-1.27 1.71 1.71 0 0 0-.3-1 1.41 1.41 0 0 0-.8-.56 5.45 5.45 0 0 0-1.18-.08h-2.46zm10.98.39a5.11 5.11 0 0 1 1.27-3.69A4.34 4.34 0 0 1 414 99a4.59 4.59 0 0 1 2.38.63 4.1 4.1 0 0 1 1.61 1.75 5.62 5.62 0 0 1 .56 2.54 5.53 5.53 0 0 1-.58 2.57 4 4 0 0 1-1.66 1.72 4.76 4.76 0 0 1-2.31.58 4.53 4.53 0 0 1-2.4-.64 4.16 4.16 0 0 1-1.6-1.76 5.3 5.3 0 0 1-.52-2.39zm1.3 0a3.77 3.77 0 0 0 .93 2.69 3.24 3.24 0 0 0 4.67 0 4 4 0 0 0 .92-2.82 4.82 4.82 0 0 0-.39-2 3 3 0 0 0-1.15-1.34 3.14 3.14 0 0 0-1.7-.47 3.23 3.23 0 0 0-2.3.91 4.06 4.06 0 0 0-.99 3.03zm13.22 4.61v-9.46h4.22a5.66 5.66 0 0 1 1.94.25 2.11 2.11 0 0 1 1.06.9 2.67 2.67 0 0 1 .4 1.43 2.37 2.37 0 0 1-.66 1.7 3.33 3.33 0 0 1-2 .88 3.3 3.3 0 0 1 .76.47 6.53 6.53 0 0 1 1 1.26l1.66 2.57h-1.59l-1.26-2q-.55-.85-.91-1.3a2.85 2.85 0 0 0-.64-.63 1.9 1.9 0 0 0-.58-.25 3.81 3.81 0 0 0-.7 0h-1.46v4.2zm1.26-5.28h2.71a4.07 4.07 0 0 0 1.35-.18 1.43 1.43 0 0 0 .74-.57 1.53 1.53 0 0 0 .25-.85 1.41 1.41 0 0 0-.49-1.1 2.31 2.31 0 0 0-1.55-.43h-3zm10.99 5.28l3.66-9.46h1.36l3.9 9.46h-1.44l-1.11-2.86h-4l-1 2.86zm2.75-3.88h3.23l-1-2.62q-.45-1.19-.68-2A12 12 0 0 1 440 102zm12.35 3.88v-8.34h-3.14v-1.12h7.55v1.12h-3.15v8.34zm9.65 0v-9.46h1.26v9.46zm6.85-4.61a5.11 5.11 0 0 1 1.27-3.69 4.34 4.34 0 0 1 3.29-1.31 4.59 4.59 0 0 1 2.38.63 4.1 4.1 0 0 1 1.61 1.75 5.62 5.62 0 0 1 .56 2.54 5.53 5.53 0 0 1-.58 2.57 4 4 0 0 1-1.66 1.72 4.76 4.76 0 0 1-2.31.58 4.53 4.53 0 0 1-2.4-.64 4.16 4.16 0 0 1-1.6-1.76 5.3 5.3 0 0 1-.56-2.39zm1.3 0a3.77 3.77 0 0 0 .93 2.69 3.24 3.24 0 0 0 4.67 0 4 4 0 0 0 .92-2.82 4.82 4.82 0 0 0-.39-2 3 3 0 0 0-1.15-1.34 3.14 3.14 0 0 0-1.7-.47 3.23 3.23 0 0 0-2.3.91 4.06 4.06 0 0 0-.98 3.03zm13.16 4.61v-9.46h1.29l5 7.42v-7.42h1.21v9.46h-1.29l-5-7.43v7.43z"/></g></g></svg>